<?xml version="1.0" encoding="UTF-8" standalone="no"?>
<!-- Generator: Adobe Illustrator 24.0.1, SVG Export Plug-In . SVG Version: 6.00 Build 0)  -->

<svg
   version="1.1"
   id="Layer_1"
   x="0px"
   y="0px"
   width="1000px"
   height="1000px"
   viewBox="0 0 1000 1000"
   style="enable-background:new 0 0 1000 1000;"
   xml:space="preserve"
   sodipodi:docname="initEdit.svg"
   inkscape:version="1.2.1 (9c6d41e410, 2022-07-14)"
   xmlns:inkscape="http://www.inkscape.org/namespaces/inkscape"
   xmlns:sodipodi="http://sodipodi.sourceforge.net/DTD/sodipodi-0.dtd"
   xmlns="http://www.w3.org/2000/svg"
   xmlns:svg="http://www.w3.org/2000/svg"><defs
   id="defs993" /><sodipodi:namedview
   id="namedview991"
   pagecolor="#ffffff"
   bordercolor="#000000"
   borderopacity="0.25"
   inkscape:showpageshadow="2"
   inkscape:pageopacity="0.0"
   inkscape:pagecheckerboard="0"
   inkscape:deskcolor="#d1d1d1"
   showgrid="false"
   inkscape:zoom="1.1511698"
   inkscape:cx="358.76549"
   inkscape:cy="277.54376"
   inkscape:window-width="1920"
   inkscape:window-height="1001"
   inkscape:window-x="-9"
   inkscape:window-y="-9"
   inkscape:window-maximized="1"
   inkscape:current-layer="illustration"
   showguides="true" />
<g
   id="illustration"
   style="display:inline;fill:#000000"
   transform="matrix(1.0521749,0,0,1,-14.231531,0)">
	
	
	
	
	
	
	
	
	
	
	
	
	
	
	
	
	
	
	
	
	
	
	
	
	
	
	
	
	
	
	
<path
   style="fill:#00d2ff;stroke-width:0.974891;fill-opacity:1"
   d="m 444.49199,282.32151 -75.13012,0.86868 52.01316,211.08963 134.57373,-0.86868 50.36194,-212.82699 h -66.87405 l -43.75711,87.73684 z"
   id="path20093" /><path
   style="fill:#00daff;fill-opacity:1;stroke-width:0.974891"
   d="m 427.15427,511.65345 -28.89619,336.17977 186.58688,1.73736 -32.19863,-339.65449 z"
   id="path20095"
   sodipodi:nodetypes="ccccc" /><path
   style="fill:#e6e6e6;stroke-width:0.974891"
   d="m 465.13213,281.45283 -20.64014,0.86868 48.71074,81.65607 46.23392,-83.39343 -21.46575,-0.86868 -23.94257,47.77749 z"
   id="path20097" /><path
   style="fill:#000080;fill-opacity:1;stroke-width:0.974891"
   d="m 422.20063,498.62323 127.96889,-1.73737 10e-6,12.16154 -125.49208,2.60605 z"
   id="path20633"
   sodipodi:nodetypes="ccccc" /><path
   style="fill:#000080;fill-opacity:1;stroke-width:0.974891"
   d="m 550.99512,496.01718 20.64015,85.1308 h -12.38409 z"
   id="path20635" /><path
   style="fill:#000080;fill-opacity:1;stroke-width:0.974891"
   d="m 551.82073,509.91609 3.30243,95.55497 -11.55849,-0.86868 z"
   id="path20691" /><path
   style="fill:#e6e6e6;fill-opacity:1;stroke-width:0.974891"
   d="m 367.71066,284.92756 -80.90936,-1.73737 -90.81662,1.73737 -52.01316,2.60604 22.29135,132.0396 31.37302,-18.24231 65.22285,-29.53517 47.88513,-18.24232 42.93149,-20.84836 23.11696,-8.68681 z"
   id="path20693" /><path
   style="fill:#e6e6e6;fill-opacity:1;stroke-width:0.974891"
   d="m 610.43873,282.32151 79.25814,0.86868 h 68.52528 l 73.47891,3.47473 -28.8962,138.98905 -70.17648,-42.56539 -59.44362,-33.87859 -46.23392,-20.84835 -26.41937,-13.89891 z"
   id="path20695"
   sodipodi:nodetypes="cccccccccc" /><path
   style="fill:#ffffff;fill-opacity:1;stroke-width:0.974891"
   d="m 495.67954,368.32099 c -1.10081,0.86868 -2.32943,1.58229 -3.30242,2.60604 -0.97299,1.02376 -1.71354,2.27009 -2.47682,3.47473 -0.30531,0.48186 0.3892,1.32786 0,1.73736 -0.1946,0.20475 -0.63101,-0.20475 -0.8256,0 -0.50575,0.53214 -0.70285,2.27344 -1.65121,2.60605 -0.52217,0.18313 -1.19325,-0.32124 -1.65122,0 -1.33518,0.93656 -1.34212,3.14952 -2.47681,4.34341 -0.1946,0.20475 -0.57946,-0.1295 -0.82561,0 -1.65121,0.86868 -2.47682,3.47472 -4.12803,4.3434 -0.24614,0.1295 -0.631,-0.20475 -0.8256,0 -0.43514,0.45784 -0.31359,1.37821 -0.8256,1.73737 -0.53493,0.37522 -2.72302,0.25903 -3.30243,0.86868 -0.1946,0.20475 0.1946,0.66393 0,0.86868 -0.007,0.007 -4.68339,2.60605 -4.95364,2.60605"
   id="path20760" /><path
   style="fill:#ffffff;fill-opacity:1;stroke-width:0.974891"
   id="path20811"
   d="m 465.47115,391.22338 c 0.43068,3.96294 0.87311,7.91677 1.8204,11.78313 0.93426,3.40849 2.23041,6.69149 3.16071,10.09953 0.52145,3.41015 1.39909,6.72951 2.18752,10.07631 0.95618,3.68589 1.77722,7.38809 2.2749,11.17415 0.36374,3.38711 0.73578,6.77374 1.12419,10.15787 0.51318,3.91974 0.98958,7.84695 1.53275,11.76228 0.54991,3.26686 1.22231,6.49503 1.57032,9.79648 0.26817,3.0704 0.31612,6.15554 0.33104,9.23686 0.005,2.4361 -0.0115,4.8721 -0.0268,7.30813 0.004,2.07714 -0.007,4.15427 -0.0121,6.2314 0,0 12.67682,6.79668 12.67682,6.79668 v 0 c -0.005,-2.0786 -0.0125,-4.15723 -0.002,-6.23582 -0.006,-2.44926 -0.007,-4.89855 -0.019,-7.34776 -0.0263,-3.12969 -0.0495,-6.26296 -0.31279,-9.38302 -0.28915,-3.33502 -0.85728,-6.60336 -1.53826,-9.87192 -0.62562,-3.88701 -1.06023,-7.81438 -1.56422,-11.71938 -0.39052,-3.3875 -0.7177,-6.78379 -1.11164,-10.17073 -0.46468,-3.82884 -1.22597,-7.58727 -2.20199,-11.30717 -0.74046,-3.35931 -1.81974,-6.63528 -2.12852,-10.09017 -0.82399,-3.47056 -2.26414,-6.73145 -3.25068,-10.1522 -1.02679,-3.74411 -1.53915,-7.60135 -1.78195,-11.48772 0,0 -12.72917,-6.65693 -12.72917,-6.65693 z" /><path
   style="fill:#ffffff;fill-opacity:1;stroke-width:0.974891"
   id="path20813"
   d="m 484.84651,367.07293 c -1.88178,3.01286 -3.75883,6.04454 -5.9829,8.79362 -1.68909,1.99902 -3.01993,4.28363 -4.47548,6.46588 -1.36501,1.80731 -2.64762,3.7221 -4.29715,5.25623 -1.61217,1.23984 -3.22143,2.45949 -4.78991,3.76389 -0.22325,0.14697 -0.4465,0.29393 -0.66974,0.4409 0,0 11.99597,8.06939 11.99597,8.06939 v 0 c 0.24192,-0.18422 0.48383,-0.36844 0.72575,-0.55265 1.56378,-1.35491 3.27959,-2.4758 4.81619,-3.86439 1.65907,-1.67642 3.05173,-3.61781 4.44474,-5.5388 1.42094,-2.15425 2.74031,-4.38856 4.35377,-6.39498 2.18443,-2.82117 4.04893,-5.88396 6.10369,-8.80569 0,0 -12.22493,-7.6334 -12.22493,-7.6334 z" /><path
   style="fill:#2b0000;fill-opacity:1;stroke-width:0.974891"
   d="m 421.37503,848.7019 h 43.7571 l 0.82561,28.6665 -47.88514,-2.60605 z"
   id="path20873" /><path
   style="fill:#2b0000;fill-opacity:1;stroke-width:0.974891"
   d="m 525.40135,853.04531 37.97786,0.86868 -0.82561,25.19177 -41.28028,-1.73736 z"
   id="path20929" /><path
   style="fill:#2b0000;fill-opacity:1;stroke-width:0.974891"
   d="m 458.52729,878.23708 0.8256,25.19176 -61.09481,7.81814 -1.65122,-14.76759 37.15225,-22.58572 z"
   id="path20931" /><path
   style="fill:#2b0000;fill-opacity:1;stroke-width:0.974891"
   d="m 554.29754,879.97444 33.84984,15.63627 -4.95363,12.16154 -56.9668,-5.21209 1.65121,-21.71704 z"
   id="path20933" /><path
   style="fill:#2b0000;fill-opacity:1;stroke-width:0.974891"
   d="m 453.57365,136.38301 -55.31557,0.86868 -10.73288,-5.21209 2.47681,-11.29286 63.57164,-1.73736 12.38409,-72.100575 h 58.618 l 9.90727,70.363215 h 60.26921 l 4.95364,5.21209 -0.82561,6.08077 -3.30242,6.94945 -79.25815,-1.73736 -17.33771,-7.81814 -16.51212,-2.60604 -14.0353,1.73736 z"
   id="path20935" /><path
   style="fill:#2b0000;fill-opacity:1;stroke-width:0.974891"
   d="m 446.1432,137.25169 -1.65121,67.75716 8.25606,11.29286 8.25606,7.81814 24.76816,11.29286 -7.43045,1.73736 -5.77923,0.86868 -33.02424,-30.40385 -0.8256,-66.0198 z"
   id="path20937" /><path
   style="fill:#2b0000;fill-opacity:1;stroke-width:0.974891"
   d="m 534.48301,135.51433 1.65121,76.44398 -35.50105,24.32308 29.72181,-24.32308 -1.65121,-76.44398 z"
   id="path20939" /><path
   style="fill:#2b0000;fill-opacity:1;stroke-width:0.974891"
   d="m 474.21379,238.01875 -0.8256,10.42418 31.37302,-1.73736 -0.82561,-13.89891 z"
   id="path20941" /><ellipse
   style="fill:#2b0000;fill-opacity:1;stroke-width:0.974891"
   id="path21055"
   cx="489.07468"
   cy="438.6842"
   rx="31.373014"
   ry="31.272537" /><path
   sodipodi:type="star"
   style="fill:#ffff00;fill-opacity:1;stroke-width:0.974891"
   id="path21169"
   inkscape:flatsided="false"
   sodipodi:sides="5"
   sodipodi:cx="501.22928"
   sodipodi:cy="441.29026"
   sodipodi:r1="24.8449"
   sodipodi:r2="12.42245"
   sodipodi:arg1="0.93428811"
   sodipodi:arg2="1.5626066"
   inkscape:rounded="0"
   inkscape:randomized="0"
   d="m 515.99687,461.26993 -14.66586,-7.55764 -14.5401,7.79683 2.65575,-16.28349 -11.90837,-11.41911 16.30719,-2.5061 7.18033,-14.85423 7.42265,14.73463 16.34605,2.23868 -11.71974,11.61262 z"
   transform="matrix(0.95041233,0,0,1,13.525823,0)"
   inkscape:transform-center-x="0.062875944"
   inkscape:transform-center-y="-2.3125991" /></g><g
   id="skeleton_1_"
   style="opacity:0.25"
   sodipodi:insensitive="true">
	<circle
   id="rightShoulder"
   cx="392.79999"
   cy="294.29999"
   r="8.1999998" />
	<circle
   id="rightElbow"
   cx="289.29999"
   cy="294.39999"
   r="8.1999998" />
	
		<circle
   id="rightWrist"
   transform="matrix(0.9951,-0.09853767,0.09853767,0.9951,-29.0274,13.8698)"
   cx="125.9"
   cy="300.79999"
   r="8.1999998" />
	<circle
   id="rightHip"
   cx="443.10001"
   cy="510.10001"
   r="8.1999998" />
	<circle
   id="rightKnee"
   cx="449.5"
   cy="670.29999"
   r="8.1999998" />
	<circle
   id="rightAnkle"
   cx="449.5"
   cy="878.29999"
   r="8.1999998" />
	<circle
   id="leftShoulder"
   cx="605.70001"
   cy="294.29999"
   r="8.1999998" />
	<circle
   id="leftElbow"
   cx="710.09998"
   cy="294"
   r="8.1999998" />
	<circle
   id="leftWrist"
   cx="873.5"
   cy="300.29999"
   r="8.1999998" />
	<circle
   id="leftHip"
   cx="559.5"
   cy="509.29999"
   r="8.1999998" />
	<circle
   id="leftKnee"
   cx="559.5"
   cy="670.29999"
   r="8.1999998" />
	<circle
   id="leftAnkle"
   cx="559.5"
   cy="878.29999"
   r="8.1999998" />
	<polygon
   style="fill:none;stroke:#000000;stroke-miterlimit:10"
   points="443,510.4 559.4,509.6 605.6,294.6 392.7,294.6 "
   id="polygon886" />
	<polyline
   style="fill:none;stroke:#000000;stroke-miterlimit:10"
   points="391.7,294.6 289,294.6 125.7,300.9  "
   id="polyline888" />
	<polyline
   style="fill:none;stroke:#000000;stroke-miterlimit:10"
   points="607.1,294.2 710.3,294.2 873.6,300.6  "
   id="polyline890" />
	<polyline
   style="fill:none;stroke:#000000;stroke-miterlimit:10"
   points="443,510.4 449.4,670.6 449.4,878.6  "
   id="polyline892" />
	<polyline
   style="fill:none;stroke:#000000;stroke-miterlimit:10"
   points="559.4,509.6 559.4,670.6 559.4,878.6  "
   id="polyline894" />
	<circle
   id="rightEye0"
   cx="468.60001"
   cy="160.2"
   r="0.80000001" />
	<circle
   id="rightBrow1"
   cx="466.39999"
   cy="148.3"
   r="0.80000001" />
	<circle
   id="rightBrow4"
   cx="489.70001"
   cy="151.3"
   r="0.80000001" />
	<circle
   id="nose1"
   cx="497.60001"
   cy="161.2"
   r="0.80000001" />
	<circle
   id="rightBrow3"
   cx="479.89999"
   cy="147.3"
   r="0.80000001" />
	<circle
   id="rightEye1"
   cx="473.79999"
   cy="156.5"
   r="0.80000001" />
	<circle
   id="rightBrow0"
   cx="462.39999"
   cy="152"
   r="0.80000001" />
	<circle
   id="rightBrow2"
   cx="472.60001"
   cy="147.3"
   r="0.80000001" />
	<circle
   id="rightEye5"
   cx="473.79999"
   cy="162.5"
   r="0.80000001" />
	<circle
   id="rightEye2"
   cx="480.10001"
   cy="156.5"
   r="0.80000001" />
	<circle
   id="rightEye3"
   cx="485.29999"
   cy="160.7"
   r="0.80000001" />
	<circle
   id="nose0"
   cx="497.60001"
   cy="155.39999"
   r="0.80000001" />
	<circle
   id="nose3"
   cx="497.60001"
   cy="173.8"
   r="0.80000001" />
	<circle
   id="rightNose0"
   cx="486.89999"
   cy="178.3"
   r="0.80000001" />
	<circle
   id="rightMouthCorner"
   cx="480.89999"
   cy="200.39999"
   r="0.80000001" />
	<circle
   id="rightNose1"
   cx="492.10001"
   cy="178.3"
   r="0.80000001" />
	<circle
   id="rightUpperLipTop0"
   cx="487.79999"
   cy="197"
   r="0.80000001" />
	<circle
   id="nose2"
   cx="497.60001"
   cy="166.7"
   r="0.80000001" />
	<circle
   id="nose4"
   cx="497.60001"
   cy="179.10001"
   r="0.80000001" />
	<circle
   id="upperLipTopMid"
   cx="498.39999"
   cy="196.8"
   r="0.80000001" />
	<circle
   id="rightUpperLipTop1"
   cx="494.29999"
   cy="195.89999"
   r="0.80000001" />
	<path
   id="rightMiddleLip"
   d="m 484.5,199.9 c 0.4,0 0.8,0.4 0.8,0.8 0,0.4 -0.4,0.8 -0.8,0.8 -0.4,0 -0.8,-0.4 -0.8,-0.8 0,-0.4 0.4,-0.8 0.8,-0.8 z" />
	<circle
   id="lowerLipBottomMid"
   cx="498.39999"
   cy="210"
   r="0.80000001" />
	<circle
   id="upperLipBottomMid"
   cx="498.39999"
   cy="200.39999"
   r="0.80000001" />
	<circle
   id="lowerLipTopMid"
   cx="498.39999"
   cy="203.5"
   r="0.80000001" />
	<circle
   id="rightUpperLipBottom1"
   cx="494.5"
   cy="199.89999"
   r="0.80000001" />
	<circle
   id="rightLowerLipTop0"
   cx="494.5"
   cy="202.8"
   r="0.80000001" />
	<circle
   id="rightLowerLipBottom1"
   cx="494.29999"
   cy="209.5"
   r="0.80000001" />
	<circle
   id="rightLowerLipBottom0"
   cx="487.29999"
   cy="206.7"
   r="0.80000001" />
	<circle
   id="rightEye4"
   cx="480.10001"
   cy="161.7"
   r="0.80000001" />
	<circle
   id="jawMid"
   cx="498.39999"
   cy="235.8"
   r="0.80000001" />
	<circle
   id="rightJaw7"
   cx="483.39999"
   cy="232.60001"
   r="0.80000001" />
	<circle
   id="rightJaw6"
   cx="473.39999"
   cy="225.89999"
   r="0.80000001" />
	<circle
   id="rightJaw5"
   cx="461.79999"
   cy="213.39999"
   r="0.80000001" />
	<circle
   id="rightJaw4"
   cx="455"
   cy="193.39999"
   r="0.80000001" />
	<circle
   id="rightJaw3"
   cx="454.20001"
   cy="171.7"
   r="0.80000001" />
	<circle
   id="rightJaw2"
   cx="454.20001"
   cy="162.2"
   r="0.80000001" />
	<circle
   id="rightJaw1"
   cx="455"
   cy="150.5"
   r="0.80000001" />
	<circle
   id="rightJaw0"
   cx="457.5"
   cy="141.2"
   r="0.80000001" />
	<circle
   id="topMid"
   cx="498.60001"
   cy="115.1"
   r="0.80000001" />
	<circle
   id="leftTop0"
   cx="518.29999"
   cy="117.6"
   r="0.80000001" />
	<circle
   id="leftTop1"
   cx="530.90002"
   cy="127.1"
   r="0.80000001" />
	<circle
   id="leftEye0"
   cx="528.20001"
   cy="160.2"
   r="0.80000001" />
	<circle
   id="leftBrow1"
   cx="530.09998"
   cy="148.7"
   r="0.80000001" />
	<circle
   id="leftBrow4"
   cx="506.5"
   cy="150.8"
   r="0.80000001" />
	<circle
   id="leftBrow3"
   cx="516.5"
   cy="147.60001"
   r="0.80000001" />
	<circle
   id="leftEye1"
   cx="523"
   cy="156.5"
   r="0.80000001" />
	<circle
   id="leftBrow0"
   cx="534.09998"
   cy="151.60001"
   r="0.80000001" />
	<circle
   id="leftBrow2"
   cx="523.79999"
   cy="147.2"
   r="0.80000001" />
	<circle
   id="leftEye5"
   cx="523"
   cy="162.5"
   r="0.80000001" />
	<circle
   id="leftEye2"
   cx="516.70001"
   cy="156.5"
   r="0.80000001" />
	<circle
   id="leftEye3"
   cx="511.5"
   cy="160.7"
   r="0.80000001" />
	<circle
   id="leftNose0"
   cx="508"
   cy="178.3"
   r="0.80000001" />
	<circle
   id="leftMouthCorner"
   cx="515.90002"
   cy="200.39999"
   r="0.80000001" />
	<circle
   id="leftNose1"
   cx="503.20001"
   cy="178.3"
   r="0.80000001" />
	<circle
   id="leftUpperLipTop0"
   cx="509"
   cy="197"
   r="0.80000001" />
	<circle
   id="leftUpperLipTop1"
   cx="502.60001"
   cy="195.89999"
   r="0.80000001" />
	<path
   id="leftMiddleLip"
   d="m 512.3,199.9 c 0.4,0 0.8,0.4 0.8,0.8 0,0.4 -0.4,0.8 -0.8,0.8 -0.4,0 -0.8,-0.4 -0.8,-0.8 0,-0.4 0.4,-0.8 0.8,-0.8 z" />
	<circle
   id="leftUpperLipBottom1"
   cx="502.39999"
   cy="199.89999"
   r="0.80000001" />
	<circle
   id="leftLowerLipTop0"
   cx="502.39999"
   cy="202.8"
   r="0.80000001" />
	<circle
   id="leftLowerLipBottom1"
   cx="502.60001"
   cy="209.5"
   r="0.80000001" />
	<circle
   id="leftLowerLipBottom0"
   cx="509.5"
   cy="206.7"
   r="0.80000001" />
	<circle
   id="leftEye4"
   cx="516.70001"
   cy="161.7"
   r="0.80000001" />
	<circle
   id="leftJaw7"
   cx="513.20001"
   cy="233"
   r="0.80000001" />
	<circle
   id="leftJaw6"
   cx="523.20001"
   cy="226.3"
   r="0.80000001" />
	<circle
   id="leftJaw5"
   cx="534.79999"
   cy="213.7"
   r="0.80000001" />
	<circle
   id="leftJaw4"
   cx="541.59998"
   cy="193.7"
   r="0.80000001" />
	<circle
   id="leftJaw3"
   cx="542.40002"
   cy="172.10001"
   r="0.80000001" />
	<circle
   id="leftJaw2"
   cx="542.40002"
   cy="162.5"
   r="0.80000001" />
	<circle
   id="leftJaw1"
   cx="541.59998"
   cy="150.8"
   r="0.80000001" />
	<circle
   id="leftJaw0"
   cx="539.09998"
   cy="141.60001"
   r="0.80000001" />
	<polyline
   style="fill:none;stroke:#000000;stroke-miterlimit:10"
   points="498.4,115.1 478.6,117.6 466.1,127.1 457.5,141.2    455,150.5 454.2,162.2 454.2,171.7 455,193.4 461.8,213.4 473.4,225.9 483.4,232.6 498.4,235.8 513.2,233 523.2,226.3 534.8,213.7    541.6,193.7 542.4,172.1 542.4,162.5 541.6,150.8 539.1,141.6 530.9,127.1 518.3,117.6 498.4,115.1  "
   id="polyline967" />
	<polyline
   style="fill:none;stroke:#000000;stroke-miterlimit:10"
   points="462.4,152 466.4,148.3 472.6,147.3 479.9,147.3    489.7,151.3  "
   id="polyline969" />
	<polygon
   style="fill:none;stroke:#000000;stroke-miterlimit:10"
   points="473.8,162.5 468.6,160.2 473.8,156.5 480.1,156.5 485.3,160.7 480.1,161.7 "
   id="polygon971" />
	<polyline
   style="fill:none;stroke:#000000;stroke-miterlimit:10"
   points="486.9,178.3 492.1,178.3 497.6,179.1 497.6,173.8    497.6,166.7 497.6,161.2 497.6,155.4  "
   id="polyline973" />
	<polyline
   style="fill:none;stroke:#000000;stroke-miterlimit:10"
   points="533.9,151.6 529.9,148.7 523.6,147.2 516.3,147.6    506.3,150.8  "
   id="polyline975" />
	<polygon
   style="fill:none;stroke:#000000;stroke-miterlimit:10"
   points="522.7,162.5 528,160.2 522.7,156.5 516.4,156.5 511.3,160.7 516.4,161.7 "
   id="polygon977" />
	<polyline
   style="fill:none;stroke:#000000;stroke-miterlimit:10"
   points="508,178.3 503,178.3 497.6,179.1  "
   id="polyline979" />
	<polygon
   style="fill:none;stroke:#000000;stroke-miterlimit:10"
   points="509,197 515.9,200.4 509.5,206.7 502.4,209.5 498.4,210 494.3,209.5 487.3,206.7 480.9,200.4 487.8,197 494.3,195.9 498.4,196.8 502.6,195.9 "
   id="polygon981" />
	<polyline
   style="fill:none;stroke:#000000;stroke-miterlimit:10"
   points="480.9,200.4 484.5,200.7 494.5,199.9 498.4,200.4    502.4,199.9 512.3,200.7 515.9,200.4  "
   id="polyline983" />
	<polyline
   style="fill:none;stroke:#000000;stroke-miterlimit:10"
   points="480.9,200.4 484.5,200.7 494.5,202.8 498.4,203.6    502.4,202.8 512.3,200.7 515.9,200.4  "
   id="polyline985" />
	<circle
   id="rightTop0"
   cx="478.70001"
   cy="117.6"
   r="0.80000001" />
	<circle
   id="rightTop1"
   cx="466.10001"
   cy="127.1"
   r="0.80000001" />
</g>

</svg>
