<?xml version="1.0" encoding="UTF-8" standalone="no"?>
<!-- Generator: Adobe Illustrator 24.0.1, SVG Export Plug-In . SVG Version: 6.00 Build 0)  -->

<svg
   version="1.1"
   id="Layer_1"
   x="0px"
   y="0px"
   width="1000px"
   height="1000px"
   viewBox="0 0 1000 1000"
   style="enable-background:new 0 0 1000 1000;"
   xml:space="preserve"
   sodipodi:docname="initEdit.svg"
   inkscape:version="1.2.1 (9c6d41e410, 2022-07-14)"
   xmlns:inkscape="http://www.inkscape.org/namespaces/inkscape"
   xmlns:sodipodi="http://sodipodi.sourceforge.net/DTD/sodipodi-0.dtd"
   xmlns="http://www.w3.org/2000/svg"
   xmlns:svg="http://www.w3.org/2000/svg"><defs
   id="defs993" /><sodipodi:namedview
   id="namedview991"
   pagecolor="#ffffff"
   bordercolor="#000000"
   borderopacity="0.25"
   inkscape:showpageshadow="2"
   inkscape:pageopacity="0.0"
   inkscape:pagecheckerboard="0"
   inkscape:deskcolor="#d1d1d1"
   showgrid="false"
   inkscape:zoom="1.1511698"
   inkscape:cx="337.91713"
   inkscape:cy="416.53282"
   inkscape:window-width="1920"
   inkscape:window-height="1001"
   inkscape:window-x="-9"
   inkscape:window-y="-9"
   inkscape:window-maximized="1"
   inkscape:current-layer="illustration"
   showguides="true" />
<g
   id="illustration"
   style="display:inline;fill:#000000"
   transform="matrix(1.0521749,0,0,1,-14.231531,0)">
	
	
	
	
	
	
	
	
	
	
	
	
	
	
	
	
	
	
	
	
	
	
	
	
	
	
	
	
	
	
	
<path
   style="fill:#00d2ff;stroke-width:0.974891;fill-opacity:1"
   d="m 444.49199,282.32151 -75.13012,0.86868 52.01316,211.08963 134.57373,-0.86868 50.36194,-212.82699 h -66.87405 l -43.75711,87.73684 z"
   id="path20093" /><path
   style="fill:#00daff;fill-opacity:1;stroke-width:0.974891"
   d="m 427.15427,511.65345 -28.89619,336.17977 186.58688,1.73736 -32.19863,-339.65449 z"
   id="path20095"
   sodipodi:nodetypes="ccccc" /><path
   style="fill:#e6e6e6;stroke-width:0.974891"
   d="m 465.13213,281.45283 -20.64014,0.86868 48.71074,81.65607 46.23392,-83.39343 -21.46575,-0.86868 -23.94257,47.77749 z"
   id="path20097" /><path
   style="fill:#000080;fill-opacity:1;stroke-width:0.974891"
   d="m 422.20063,498.62323 127.96889,-1.73737 10e-6,12.16154 -125.49208,2.60605 z"
   id="path20633"
   sodipodi:nodetypes="ccccc" /><path
   style="fill:#000080;fill-opacity:1;stroke-width:0.974891"
   d="m 550.99512,496.01718 20.64015,85.1308 h -12.38409 z"
   id="path20635" /><path
   style="fill:#000080;fill-opacity:1;stroke-width:0.974891"
   d="m 551.82073,509.91609 3.30243,95.55497 -11.55849,-0.86868 z"
   id="path20691" /><path
   style="fill:#e6e6e6;fill-opacity:1;stroke-width:0.974891"
   d="m 367.71066,284.92756 -80.90936,-1.73737 -90.81662,1.73737 -52.01316,2.60604 22.29135,132.0396 31.37302,-18.24231 65.22285,-29.53517 47.88513,-18.24232 42.93149,-20.84836 23.11696,-8.68681 z"
   id="path20693" /><path
   style="fill:#e6e6e6;fill-opacity:1;stroke-width:0.974891"
   d="m 610.43873,282.32151 79.25814,0.86868 h 68.52528 l 73.47891,3.47473 -28.8962,138.98905 -70.17648,-42.56539 -59.44362,-33.87859 -46.23392,-20.84835 -26.41937,-13.89891 z"
   id="path20695"
   sodipodi:nodetypes="cccccccccc" /><path
   style="fill:#ffffff;fill-opacity:1;stroke-width:0.974891"
   d="m 495.67954,368.32099 c -1.10081,0.86868 -2.32943,1.58229 -3.30242,2.60604 -0.97299,1.02376 -1.71354,2.27009 -2.47682,3.47473 -0.30531,0.48186 0.3892,1.32786 0,1.73736 -0.1946,0.20475 -0.63101,-0.20475 -0.8256,0 -0.50575,0.53214 -0.70285,2.27344 -1.65121,2.60605 -0.52217,0.18313 -1.19325,-0.32124 -1.65122,0 -1.33518,0.93656 -1.34212,3.14952 -2.47681,4.34341 -0.1946,0.20475 -0.57946,-0.1295 -0.82561,0 -1.65121,0.86868 -2.47682,3.47472 -4.12803,4.3434 -0.24614,0.1295 -0.631,-0.20475 -0.8256,0 -0.43514,0.45784 -0.31359,1.37821 -0.8256,1.73737 -0.53493,0.37522 -2.72302,0.25903 -3.30243,0.86868 -0.1946,0.20475 0.1946,0.66393 0,0.86868 -0.007,0.007 -4.68339,2.60605 -4.95364,2.60605"
   id="path20760" /><path
   style="fill:#ffffff;fill-opacity:1;stroke-width:0.974891"
   id="path20811"
   d="m 465.47115,391.22338 c 0.43068,3.96294 0.87311,7.91677 1.8204,11.78313 0.93426,3.40849 2.23041,6.69149 3.16071,10.09953 0.52145,3.41015 1.39909,6.72951 2.18752,10.07631 0.95618,3.68589 1.77722,7.38809 2.2749,11.17415 0.36374,3.38711 0.73578,6.77374 1.12419,10.15787 0.51318,3.91974 0.98958,7.84695 1.53275,11.76228 0.54991,3.26686 1.22231,6.49503 1.57032,9.79648 0.26817,3.0704 0.31612,6.15554 0.33104,9.23686 0.005,2.4361 -0.0115,4.8721 -0.0268,7.30813 0.004,2.07714 -0.007,4.15427 -0.0121,6.2314 0,0 12.67682,6.79668 12.67682,6.79668 v 0 c -0.005,-2.0786 -0.0125,-4.15723 -0.002,-6.23582 -0.006,-2.44926 -0.007,-4.89855 -0.019,-7.34776 -0.0263,-3.12969 -0.0495,-6.26296 -0.31279,-9.38302 -0.28915,-3.33502 -0.85728,-6.60336 -1.53826,-9.87192 -0.62562,-3.88701 -1.06023,-7.81438 -1.56422,-11.71938 -0.39052,-3.3875 -0.7177,-6.78379 -1.11164,-10.17073 -0.46468,-3.82884 -1.22597,-7.58727 -2.20199,-11.30717 -0.74046,-3.35931 -1.81974,-6.63528 -2.12852,-10.09017 -0.82399,-3.47056 -2.26414,-6.73145 -3.25068,-10.1522 -1.02679,-3.74411 -1.53915,-7.60135 -1.78195,-11.48772 0,0 -12.72917,-6.65693 -12.72917,-6.65693 z" /><path
   style="fill:#ffffff;fill-opacity:1;stroke-width:0.974891"
   id="path20813"
   d="m 484.84651,367.07293 c -1.88178,3.01286 -3.75883,6.04454 -5.9829,8.79362 -1.68909,1.99902 -3.01993,4.28363 -4.47548,6.46588 -1.36501,1.80731 -2.64762,3.7221 -4.29715,5.25623 -1.61217,1.23984 -3.22143,2.45949 -4.78991,3.76389 -0.22325,0.14697 -0.4465,0.29393 -0.66974,0.4409 0,0 11.99597,8.06939 11.99597,8.06939 v 0 c 0.24192,-0.18422 0.48383,-0.36844 0.72575,-0.55265 1.56378,-1.35491 3.27959,-2.4758 4.81619,-3.86439 1.65907,-1.67642 3.05173,-3.61781 4.44474,-5.5388 1.42094,-2.15425 2.74031,-4.38856 4.35377,-6.39498 2.18443,-2.82117 4.04893,-5.88396 6.10369,-8.80569 0,0 -12.22493,-7.6334 -12.22493,-7.6334 z" /><path
   style="fill:#2b0000;fill-opacity:1;stroke-width:0.974891"
   d="m 421.37503,848.7019 h 43.7571 l 0.82561,28.6665 -47.88514,-2.60605 z"
   id="path20873" /><path
   style="fill:#2b0000;fill-opacity:1;stroke-width:0.974891"
   d="m 525.40135,853.04531 37.97786,0.86868 -0.82561,25.19177 -41.28028,-1.73736 z"
   id="path20929" /><path
   style="fill:#2b0000;fill-opacity:1;stroke-width:0.974891"
   d="m 458.52729,878.23708 0.8256,25.19176 -61.09481,7.81814 -1.65122,-14.76759 37.15225,-22.58572 z"
   id="path20931" /><path
   style="fill:#2b0000;fill-opacity:1;stroke-width:0.974891"
   d="m 554.29754,879.97444 33.84984,15.63627 -4.95363,12.16154 -56.9668,-5.21209 1.65121,-21.71704 z"
   id="path20933" /><path
   style="fill:#2b0000;fill-opacity:1;stroke-width:0.974891"
   d="m 453.57365,136.38301 -55.31557,0.86868 -10.73288,-5.21209 2.47681,-11.29286 63.57164,-1.73736 12.38409,-72.100575 h 58.618 l 9.90727,70.363215 h 60.26921 l 4.95364,5.21209 -0.82561,6.08077 -3.30242,6.94945 -79.25815,-1.73736 -17.33771,-7.81814 -16.51212,-2.60604 -14.0353,1.73736 z"
   id="path20935" /><path
   style="fill:#2b0000;fill-opacity:1;stroke-width:0.974891"
   d="m 446.1432,137.25169 -1.65121,67.75716 8.25606,11.29286 8.25606,7.81814 24.76816,11.29286 -7.43045,1.73736 -5.77923,0.86868 -33.02424,-30.40385 -0.8256,-66.0198 z"
   id="path20937" /><path
   style="fill:#2b0000;fill-opacity:1;stroke-width:0.974891"
   d="m 534.48301,135.51433 1.65121,76.44398 -35.50105,24.32308 29.72181,-24.32308 -1.65121,-76.44398 z"
   id="path20939" /><path
   style="fill:#2b0000;fill-opacity:1;stroke-width:0.974891"
   d="m 474.21379,238.01875 -0.8256,10.42418 31.37302,-1.73736 -0.82561,-13.89891 z"
   id="path20941" /><ellipse
   style="fill:#2b0000;fill-opacity:1;stroke-width:0.974891"
   id="path21055"
   cx="489.07468"
   cy="438.6842"
   rx="31.373014"
   ry="31.272537" /><path
   sodipodi:type="star"
   style="fill:#ffff00;fill-opacity:1;stroke-width:0.974891"
   id="path21169"
   inkscape:flatsided="false"
   sodipodi:sides="5"
   sodipodi:cx="501.22928"
   sodipodi:cy="441.29026"
   sodipodi:r1="24.8449"
   sodipodi:r2="12.42245"
   sodipodi:arg1="0.93428811"
   sodipodi:arg2="1.5626066"
   inkscape:rounded="0"
   inkscape:randomized="0"
   d="m 515.99687,461.26993 -14.66586,-7.55764 -14.5401,7.79683 2.65575,-16.28349 -11.90837,-11.41911 16.30719,-2.5061 7.18033,-14.85423 7.42265,14.73463 16.34605,2.23868 -11.71974,11.61262 z"
   transform="matrix(0.95041233,0,0,1,13.525823,0)"
   inkscape:transform-center-x="0.062875944"
   inkscape:transform-center-y="-2.3125991" /><path
   style="fill:#000080;stroke-width:0.974891"
   id="path623"
   d="m 424.74493,140.70863 c 0.0185,2.7325 0.0123,5.46512 0.01,8.19767 -9.4e-4,2.6802 0.002,5.36039 -8.8e-4,8.04058 -0.004,2.06984 -0.006,4.13968 -0.008,6.20952 -5.4e-4,1.1618 -0.0323,0.59797 0.0855,1.69208 0,0 3.19056,1.65465 3.19056,1.65465 v 0 c -0.15503,-1.0505 -0.11143,-0.50088 -0.11197,-1.65041 -9.5e-4,-2.07249 -0.004,-4.14499 -0.008,-6.21749 -0.003,-2.6805 4e-5,-5.361 -8.8e-4,-8.04151 -0.002,-2.72898 -0.009,-5.45804 0.01,-8.18697 0,0 -3.16748,-1.69812 -3.16748,-1.69812 z" /><path
   style="fill:#000080;stroke-width:0.974891"
   id="path625"
   d="m 423.91932,172.84985 c 0.0199,2.64954 0.0113,5.29921 0.007,7.9488 -0.0181,2.49602 0.38477,4.96848 0.59211,7.45093 0.1619,2.04819 0.20471,4.10336 0.22582,6.15755 0.007,1.19439 0.004,0.59954 0.007,1.78456 0,0 3.16569,1.69615 3.16569,1.69615 v 0 c -0.003,-1.18716 -4.4e-4,-0.59112 -0.007,-1.78813 -0.0212,-2.06476 -0.0647,-4.13043 -0.22585,-6.18928 -0.20261,-2.47377 -0.6079,-4.93591 -0.60447,-7.4213 -0.004,-2.64704 -0.0127,-5.29417 0.007,-7.94116 0,0 -3.16747,-1.69812 -3.16747,-1.69812 z" /><path
   style="fill:#000080;stroke-width:0.974891"
   id="path627"
   d="m 425.57053,211.07184 c 0.0661,2.82847 -0.0894,5.66344 0.10228,8.48653 0.14005,2.23792 0.7371,4.39245 1.11841,6.58928 0.20993,2.30625 0.6178,4.5823 0.91709,6.87649 0.0938,0.70043 0.13058,1.40721 0.22654,2.10713 0,0 3.22655,1.63243 3.22655,1.63243 v 0 c -0.2148,-0.67312 -0.1408,-1.40096 -0.27506,-2.09241 -0.29528,-2.2998 -0.72857,-4.5755 -0.90897,-6.89008 -0.36997,-2.19257 -0.97346,-4.33469 -1.14413,-6.56131 -0.23022,-2.80801 -0.0617,-5.63411 -0.0952,-8.44994 0,0 -3.16748,-1.69812 -3.16748,-1.69812 z" /><path
   style="fill:#000080;stroke-width:0.974891"
   id="path631"
   d="m 429.96805,245.0113 c 0.96598,3.07072 2.12418,6.07095 3.24446,9.08213 0.51504,1.34009 1.18,2.5888 1.89588,3.81717 0,0 3.25039,1.51085 3.25039,1.51085 v 0 c -0.71928,-1.22098 -1.4257,-2.43474 -1.94901,-3.76946 -1.12126,-3.00088 -2.30672,-5.98539 -3.22068,-9.06433 0,0 -3.22104,-1.57636 -3.22104,-1.57636 z" /><path
   style="fill:#000080;stroke-width:0.974891"
   id="path633"
   d="m 442.34673,273.58076 c 1.09799,2.66294 2.47336,5.18224 3.98569,7.60516 1.59992,2.1396 3.39356,4.09907 5.29812,5.937 0.89804,0.90128 1.80366,1.78652 2.65751,2.73478 0,0 3.27671,1.44131 3.27671,1.44131 v 0 c -0.85015,-0.96605 -1.75415,-1.85736 -2.6564,-2.76804 -1.92741,-1.80328 -3.70052,-3.77045 -5.3502,-5.85778 -1.50579,-2.39877 -2.91105,-4.8779 -3.97959,-7.52982 0,0 -3.23184,-1.56261 -3.23184,-1.56261 z" /><path
   style="fill:#000080;stroke-width:0.974891"
   id="path635"
   d="m 462.52034,298.65948 c 2.45371,1.90237 4.93444,3.76774 7.52248,5.46328 3.35579,2.17878 -2.75731,-1.77324 5.11962,3.13797 0.71379,0.44505 -1.44065,-0.86717 -2.17476,-1.27393 -0.26522,-0.14695 0.50658,0.33766 0.76695,0.4939 3.90382,2.3427 2.42519,1.7927 4.62129,2.50858 1.13796,0.31564 2.31235,0.33463 3.458,0.59525 0,0 -2.83475,-2.25626 -2.83475,-2.25626 v 0 c -1.14296,-0.21067 -2.31065,-0.27131 -3.42612,-0.63296 -1.6491,-0.64407 -1.07374,-0.47838 1.49287,1.13116 0.25855,0.16213 -0.51566,-0.3268 -0.77458,-0.48829 -1.2931,-0.80648 -2.5892,-1.60761 -3.88145,-2.41559 -0.66887,-0.41822 1.33135,0.84836 2.01131,1.24628 0.37266,0.21809 -0.72594,-0.47098 -1.08891,-0.70648 -2.59721,-1.66002 -5.07292,-3.51933 -7.50819,-5.42985 0,0 -3.30376,-1.37306 -3.30376,-1.37306 z" /><path
   style="fill:#000080;stroke-width:0.974891"
   id="path637"
   d="m 492.97866,312.71042 c 3.00539,-0.75845 5.99571,-1.583 8.96741,-2.47755 3.26926,-0.98048 6.34733,-2.60171 9.25266,-4.44057 1.93068,-1.12854 3.86945,-2.2448 5.81303,-3.35031 0,0 -2.95791,-2.03228 -2.95791,-2.03228 v 0 c -1.94066,1.11859 -3.89279,2.21592 -5.81468,3.36788 -2.88658,1.81923 -5.93528,3.42921 -9.19242,4.36551 -2.97977,0.88631 -5.97305,1.72522 -8.99349,2.44422 0,0 2.9254,2.1231 2.9254,2.1231 z" /><path
   style="fill:#000080;stroke-width:0.974891"
   id="path643"
   d="m 529.89623,298.29725 c 1.6982,-2.2941 3.4718,-4.51507 5.27281,-6.72118 1.53169,-2.08804 3.19366,-4.04861 4.66203,-6.18746 1.03752,-1.57306 2.44513,-2.79931 3.72396,-4.14689 0,0 -3.03483,-1.95451 -3.03483,-1.95451 v 0 c -1.27933,1.372 -2.70213,2.60687 -3.73598,4.20687 -1.45987,2.13049 -3.11223,4.08654 -4.63262,6.16889 -1.8076,2.20487 -3.56479,4.44558 -5.30393,6.70843 0,0 3.04856,1.92585 3.04856,1.92585 z" /><path
   style="fill:#000080;stroke-width:0.974891"
   id="path647"
   d="m 545.28336,140.70863 c -0.0839,3.00777 0.26861,5.99558 0.50555,8.98713 0.23934,3.32725 0.29145,6.66468 0.32275,9.99991 0.0157,1.82667 0.0132,3.65341 0.0105,5.48012 0,0 3.15258,1.69 3.15258,1.69 v 0 c -0.004,-1.83042 -0.009,-3.66084 -0.023,-5.49121 -0.0386,-3.34299 -0.0866,-6.68784 -0.31193,-10.0239 -0.23272,-2.97687 -0.6112,-5.95082 -0.48907,-8.94393 0,0 -3.16748,-1.69812 -3.16748,-1.69812 z" /><path
   style="fill:#000080;stroke-width:0.974891"
   id="path649"
   d="m 547.76224,175.56091 c 0.0229,2.90674 0.009,5.8136 0.009,8.72039 -0.0674,2.22824 0.34533,4.42707 0.58157,6.63288 0.14832,0.80965 0.0558,1.60427 -0.0453,2.40899 0,0 3.14844,1.74544 3.14844,1.74544 v 0 c 0.11327,-0.83222 0.2321,-1.65629 0.0771,-2.49611 -0.23125,-2.19808 -0.66573,-4.38525 -0.61504,-6.60422 -5.4e-4,-2.90381 -0.0146,-5.80771 0.009,-8.71147 0,0 -3.16334,-1.6959 -3.16334,-1.6959 z" /><path
   style="fill:#000080;stroke-width:0.974891"
   id="path651"
   d="m 547.76017,207.59711 c -0.0867,2.80192 0.0914,5.57893 0.37542,8.36192 0.26802,2.29234 0.37048,4.59855 0.42736,6.9056 -0.0126,2.08688 -0.55895,4.06672 -1.14373,6.03849 0,0 3.09779,1.78697 3.09779,1.78697 v 0 c 0.59585,-2.00747 1.17251,-4.01741 1.20452,-6.1421 -0.0481,-2.31783 -0.14638,-4.6358 -0.42154,-6.93795 -0.29299,-2.76658 -0.50556,-5.52716 -0.37233,-8.31481 0,0 -3.16749,-1.69812 -3.16749,-1.69812 z" /><path
   style="fill:#000080;stroke-width:0.974891"
   id="path653"
   d="m 548.49731,244.92984 c -0.18761,2.74942 -0.57742,5.46024 -0.99591,8.17791 -0.33224,2.53247 -1.41191,4.75409 -2.5137,6.99222 -0.7895,1.34786 -1.65098,2.64519 -2.48651,3.96111 0,0 3.05287,1.88329 3.05287,1.88329 v 0 c 0.84657,-1.3247 1.71053,-2.6368 2.49884,-4.00169 1.12191,-2.27198 2.23274,-4.52046 2.57155,-7.09395 0.41435,-2.71979 0.7975,-5.43294 1.01977,-8.17961 0,0 -3.14691,-1.73928 -3.14691,-1.73928 z" /><path
   style="fill:#ffaaaa;stroke-width:0.974891"
   id="path1018"
   d="m 422.33557,198.92992 c 0.006,0.42012 0.0111,0.84024 0.0167,1.26036 0,0 6.3015,3.37829 6.3015,3.37829 v 0 c 0.006,-0.41414 0.0111,-0.82828 0.0167,-1.24241 0,0 -6.33497,-3.39624 -6.33497,-3.39624 z" /><path
   style="fill:#ffaaaa;stroke-width:0.974891"
   id="path1020"
   d="m 423.16118,198.92992 c 0.0317,1.86327 0.0235,3.72695 0.0258,5.59043 0,0 6.2835,3.36865 6.2835,3.36865 v 0 c 0.002,-1.85428 -0.006,-3.70877 0.0258,-5.56284 0,0 -6.33496,-3.39624 -6.33496,-3.39624 z" /><path
   style="fill:#ffaaaa;stroke-width:0.974891"
   id="path1022"
   d="m 422.25739,166.74753 c -0.17025,1.77393 -0.0851,0.84222 -0.25252,2.7954 0,0 6.24863,3.42969 6.24863,3.42969 v 0 c 0.18659,-1.9219 0.0851,-1.00666 0.29771,-2.74651 0,0 -6.29382,-3.47858 -6.29382,-3.47858 z" /><path
   style="fill:#ffaaaa;stroke-width:0.974891"
   id="path1024"
   d="m 422.25922,164.25218 c -0.16374,1.93039 -0.0794,0.93841 -0.25311,2.97594 0,0 6.24614,3.42618 6.24614,3.42618 v 0 c 0.18661,-2.01668 0.0865,-1.03776 0.29714,-2.93712 0,0 -6.29017,-3.465 -6.29017,-3.465 z" /><path
   style="fill:#ffaaaa;stroke-width:0.974891"
   id="path1026"
   d="m 426.30759,238.80872 c -0.43793,2.06232 -0.3588,4.15079 -0.22187,6.23966 0,0 6.33116,3.33125 6.33116,3.33125 v 0 c -0.15687,-2.01223 -0.30842,-4.02452 0.14269,-6.01357 0,0 -6.25198,-3.55734 -6.25198,-3.55734 z" /><path
   style="fill:#ffaaaa;stroke-width:0.974891"
   id="path1028"
   d="m 436.45006,263.25407 c 0.46918,3.27687 0.79145,6.58336 1.34308,9.84613 0,0 6.34998,3.24324 6.34998,3.24324 v 0 c -0.65338,-3.21427 -0.93768,-6.51781 -1.31896,-9.77656 0,0 -6.3741,-3.31281 -6.3741,-3.31281 z" /><path
   style="fill:#ffaaaa;stroke-width:0.974891"
   id="path1030"
   d="m 456.41732,292.77913 c 0.5358,1.3036 0.88751,2.67454 1.2457,4.03964 0,0 6.36361,3.19286 6.36361,3.19286 v 0 c -0.34379,-1.38071 -0.69314,-2.76025 -1.14563,-4.10728 0,0 -6.46368,-3.12522 -6.46368,-3.12522 z" /><path
   style="fill:#ffaaaa;stroke-width:0.974891"
   id="path1032"
   d="m 488.34405,312.09319 c 0.96792,-2.4962 1.4576,-5.14511 1.93158,-7.78149 0.64641,-3.1633 1.13504,-0.89181 -6.09167,-3.99169 -0.12178,-0.0522 0.007,0.27754 -0.008,0.41502 -0.0545,0.50358 -0.16109,0.99941 -0.23712,1.49989 -0.0997,0.4494 -0.11315,0.93488 -0.29799,1.36033 0,0 6.25086,3.68233 6.25086,3.68233 v 0 c 0.18283,-0.49431 0.24307,-1.01642 0.32571,-1.53847 0.0149,-0.0907 0.45117,-2.08943 0.3993,-2.12575 -6.06269,-4.24588 -6.05598,-6.2002 -6.60286,-2.80305 -0.39321,2.59352 -0.85891,5.20002 -1.87219,7.61778 0,0 6.20222,3.6651 6.20222,3.6651 z" /><path
   style="fill:#ffaaaa;stroke-width:0.974891"
   id="path1034"
   d="m 519.01063,297.13265 c 0.39842,2.34378 1.01312,4.62418 1.66477,6.89966 0.20156,0.10636 0.64477,3.29694 0.65952,2.26842 0,0 5.95795,4.18606 5.95795,4.18606 v 0 c 0.99569,-1.14784 -0.0208,-1.88664 -0.20526,-3.2603 -0.6339,-2.24596 -1.33506,-4.46037 -1.70288,-6.78102 0,0 -6.3741,-3.31282 -6.3741,-3.31282 z" /><path
   style="fill:#ffaaaa;stroke-width:0.974891"
   id="path1036"
   d="m 457.01102,291.01017 c -0.12629,2.04061 -0.38694,4.06862 -0.56974,6.1043 0,0 6.27785,3.44086 6.27785,3.44086 v 0 c 0.16795,-2.05441 0.39509,-4.10153 0.62685,-6.14893 0,0 -6.33496,-3.39623 -6.33496,-3.39623 z" /><path
   style="fill:#ffaaaa;stroke-width:0.974891"
   id="path1042"
   d="m 540.32083,270.23134 c -0.17224,2.03932 -0.32199,4.07867 -0.56882,6.10957 0,0 6.23121,3.45033 6.23121,3.45033 v 0 c 0.2648,-2.02655 0.38975,-4.06459 0.62779,-6.0949 0,0 -6.29018,-3.465 -6.29018,-3.465 z" /><path
   style="fill:#ffaaaa;stroke-width:0.974891"
   id="path1044"
   d="m 548.57506,236.24206 c -0.0358,0.11887 -0.76407,4.84392 -1.1874,3.82051 -2.13289,-1.20941 -5.1592,-2.56616 4.88424,2.90574 0.18862,0.10277 -0.30836,-0.313 -0.42404,-0.50043 -0.25561,-0.41421 -0.26319,-0.73713 -0.34501,-1.21052 -0.0817,-0.72387 -0.0346,-1.42701 0.0825,-2.13998 0,0 -6.27965,-3.5297 -6.27965,-3.5297 v 0 c -0.1612,0.78274 -0.23707,1.54583 -0.18652,2.35048 0.28998,4.1208 4.16808,6.30495 8.11974,6.47011 1.33421,-0.96941 1.14576,-3.22711 1.63,-4.68764 0,0 -6.29382,-3.47857 -6.29382,-3.47857 z" /><path
   style="fill:#ffaaaa;stroke-width:0.974891"
   id="path1050"
   d="m 552.7413,206.11404 c 0.81495,-2.26163 1.92442,-4.41735 3.06679,-6.51516 0,0 -6.14331,-3.72382 -6.14331,-3.72382 v 0 c -1.13175,2.13695 -2.22955,4.31669 -3.12571,6.57388 0,0 6.20223,3.6651 6.20223,3.6651 z" /><path
   style="fill:#ff8080;stroke-width:0.974891"
   id="path1052"
   d="m 543.85957,168.60873 c 0.46009,1.79219 0.76144,3.62117 1.03465,5.45299 0,0 6.33895,3.27038 6.33895,3.27038 v 0 c -0.26702,-1.84112 -0.56866,-3.67612 -0.96353,-5.49247 0,0 -6.41007,-3.2309 -6.41007,-3.2309 z" /></g><g
   id="skeleton_1_"
   style="opacity:0.25"
   sodipodi:insensitive="true">
	<circle
   id="rightShoulder"
   cx="392.79999"
   cy="294.29999"
   r="8.1999998" />
	<circle
   id="rightElbow"
   cx="289.29999"
   cy="294.39999"
   r="8.1999998" />
	
		<circle
   id="rightWrist"
   transform="matrix(0.9951,-0.09853767,0.09853767,0.9951,-29.0274,13.8698)"
   cx="125.9"
   cy="300.79999"
   r="8.1999998" />
	<circle
   id="rightHip"
   cx="443.10001"
   cy="510.10001"
   r="8.1999998" />
	<circle
   id="rightKnee"
   cx="449.5"
   cy="670.29999"
   r="8.1999998" />
	<circle
   id="rightAnkle"
   cx="449.5"
   cy="878.29999"
   r="8.1999998" />
	<circle
   id="leftShoulder"
   cx="605.70001"
   cy="294.29999"
   r="8.1999998" />
	<circle
   id="leftElbow"
   cx="710.09998"
   cy="294"
   r="8.1999998" />
	<circle
   id="leftWrist"
   cx="873.5"
   cy="300.29999"
   r="8.1999998" />
	<circle
   id="leftHip"
   cx="559.5"
   cy="509.29999"
   r="8.1999998" />
	<circle
   id="leftKnee"
   cx="559.5"
   cy="670.29999"
   r="8.1999998" />
	<circle
   id="leftAnkle"
   cx="559.5"
   cy="878.29999"
   r="8.1999998" />
	<polygon
   style="fill:none;stroke:#000000;stroke-miterlimit:10"
   points="443,510.4 559.4,509.6 605.6,294.6 392.7,294.6 "
   id="polygon886" />
	<polyline
   style="fill:none;stroke:#000000;stroke-miterlimit:10"
   points="391.7,294.6 289,294.6 125.7,300.9  "
   id="polyline888" />
	<polyline
   style="fill:none;stroke:#000000;stroke-miterlimit:10"
   points="607.1,294.2 710.3,294.2 873.6,300.6  "
   id="polyline890" />
	<polyline
   style="fill:none;stroke:#000000;stroke-miterlimit:10"
   points="443,510.4 449.4,670.6 449.4,878.6  "
   id="polyline892" />
	<polyline
   style="fill:none;stroke:#000000;stroke-miterlimit:10"
   points="559.4,509.6 559.4,670.6 559.4,878.6  "
   id="polyline894" />
	<circle
   id="rightEye0"
   cx="468.60001"
   cy="160.2"
   r="0.80000001" />
	<circle
   id="rightBrow1"
   cx="466.39999"
   cy="148.3"
   r="0.80000001" />
	<circle
   id="rightBrow4"
   cx="489.70001"
   cy="151.3"
   r="0.80000001" />
	<circle
   id="nose1"
   cx="497.60001"
   cy="161.2"
   r="0.80000001" />
	<circle
   id="rightBrow3"
   cx="479.89999"
   cy="147.3"
   r="0.80000001" />
	<circle
   id="rightEye1"
   cx="473.79999"
   cy="156.5"
   r="0.80000001" />
	<circle
   id="rightBrow0"
   cx="462.39999"
   cy="152"
   r="0.80000001" />
	<circle
   id="rightBrow2"
   cx="472.60001"
   cy="147.3"
   r="0.80000001" />
	<circle
   id="rightEye5"
   cx="473.79999"
   cy="162.5"
   r="0.80000001" />
	<circle
   id="rightEye2"
   cx="480.10001"
   cy="156.5"
   r="0.80000001" />
	<circle
   id="rightEye3"
   cx="485.29999"
   cy="160.7"
   r="0.80000001" />
	<circle
   id="nose0"
   cx="497.60001"
   cy="155.39999"
   r="0.80000001" />
	<circle
   id="nose3"
   cx="497.60001"
   cy="173.8"
   r="0.80000001" />
	<circle
   id="rightNose0"
   cx="486.89999"
   cy="178.3"
   r="0.80000001" />
	<circle
   id="rightMouthCorner"
   cx="480.89999"
   cy="200.39999"
   r="0.80000001" />
	<circle
   id="rightNose1"
   cx="492.10001"
   cy="178.3"
   r="0.80000001" />
	<circle
   id="rightUpperLipTop0"
   cx="487.79999"
   cy="197"
   r="0.80000001" />
	<circle
   id="nose2"
   cx="497.60001"
   cy="166.7"
   r="0.80000001" />
	<circle
   id="nose4"
   cx="497.60001"
   cy="179.10001"
   r="0.80000001" />
	<circle
   id="upperLipTopMid"
   cx="498.39999"
   cy="196.8"
   r="0.80000001" />
	<circle
   id="rightUpperLipTop1"
   cx="494.29999"
   cy="195.89999"
   r="0.80000001" />
	<path
   id="rightMiddleLip"
   d="m 484.5,199.9 c 0.4,0 0.8,0.4 0.8,0.8 0,0.4 -0.4,0.8 -0.8,0.8 -0.4,0 -0.8,-0.4 -0.8,-0.8 0,-0.4 0.4,-0.8 0.8,-0.8 z" />
	<circle
   id="lowerLipBottomMid"
   cx="498.39999"
   cy="210"
   r="0.80000001" />
	<circle
   id="upperLipBottomMid"
   cx="498.39999"
   cy="200.39999"
   r="0.80000001" />
	<circle
   id="lowerLipTopMid"
   cx="498.39999"
   cy="203.5"
   r="0.80000001" />
	<circle
   id="rightUpperLipBottom1"
   cx="494.5"
   cy="199.89999"
   r="0.80000001" />
	<circle
   id="rightLowerLipTop0"
   cx="494.5"
   cy="202.8"
   r="0.80000001" />
	<circle
   id="rightLowerLipBottom1"
   cx="494.29999"
   cy="209.5"
   r="0.80000001" />
	<circle
   id="rightLowerLipBottom0"
   cx="487.29999"
   cy="206.7"
   r="0.80000001" />
	<circle
   id="rightEye4"
   cx="480.10001"
   cy="161.7"
   r="0.80000001" />
	<circle
   id="jawMid"
   cx="498.39999"
   cy="235.8"
   r="0.80000001" />
	<circle
   id="rightJaw7"
   cx="483.39999"
   cy="232.60001"
   r="0.80000001" />
	<circle
   id="rightJaw6"
   cx="473.39999"
   cy="225.89999"
   r="0.80000001" />
	<circle
   id="rightJaw5"
   cx="461.79999"
   cy="213.39999"
   r="0.80000001" />
	<circle
   id="rightJaw4"
   cx="455"
   cy="193.39999"
   r="0.80000001" />
	<circle
   id="rightJaw3"
   cx="454.20001"
   cy="171.7"
   r="0.80000001" />
	<circle
   id="rightJaw2"
   cx="454.20001"
   cy="162.2"
   r="0.80000001" />
	<circle
   id="rightJaw1"
   cx="455"
   cy="150.5"
   r="0.80000001" />
	<circle
   id="rightJaw0"
   cx="457.5"
   cy="141.2"
   r="0.80000001" />
	<circle
   id="topMid"
   cx="498.60001"
   cy="115.1"
   r="0.80000001" />
	<circle
   id="leftTop0"
   cx="518.29999"
   cy="117.6"
   r="0.80000001" />
	<circle
   id="leftTop1"
   cx="530.90002"
   cy="127.1"
   r="0.80000001" />
	<circle
   id="leftEye0"
   cx="528.20001"
   cy="160.2"
   r="0.80000001" />
	<circle
   id="leftBrow1"
   cx="530.09998"
   cy="148.7"
   r="0.80000001" />
	<circle
   id="leftBrow4"
   cx="506.5"
   cy="150.8"
   r="0.80000001" />
	<circle
   id="leftBrow3"
   cx="516.5"
   cy="147.60001"
   r="0.80000001" />
	<circle
   id="leftEye1"
   cx="523"
   cy="156.5"
   r="0.80000001" />
	<circle
   id="leftBrow0"
   cx="534.09998"
   cy="151.60001"
   r="0.80000001" />
	<circle
   id="leftBrow2"
   cx="523.79999"
   cy="147.2"
   r="0.80000001" />
	<circle
   id="leftEye5"
   cx="523"
   cy="162.5"
   r="0.80000001" />
	<circle
   id="leftEye2"
   cx="516.70001"
   cy="156.5"
   r="0.80000001" />
	<circle
   id="leftEye3"
   cx="511.5"
   cy="160.7"
   r="0.80000001" />
	<circle
   id="leftNose0"
   cx="508"
   cy="178.3"
   r="0.80000001" />
	<circle
   id="leftMouthCorner"
   cx="515.90002"
   cy="200.39999"
   r="0.80000001" />
	<circle
   id="leftNose1"
   cx="503.20001"
   cy="178.3"
   r="0.80000001" />
	<circle
   id="leftUpperLipTop0"
   cx="509"
   cy="197"
   r="0.80000001" />
	<circle
   id="leftUpperLipTop1"
   cx="502.60001"
   cy="195.89999"
   r="0.80000001" />
	<path
   id="leftMiddleLip"
   d="m 512.3,199.9 c 0.4,0 0.8,0.4 0.8,0.8 0,0.4 -0.4,0.8 -0.8,0.8 -0.4,0 -0.8,-0.4 -0.8,-0.8 0,-0.4 0.4,-0.8 0.8,-0.8 z" />
	<circle
   id="leftUpperLipBottom1"
   cx="502.39999"
   cy="199.89999"
   r="0.80000001" />
	<circle
   id="leftLowerLipTop0"
   cx="502.39999"
   cy="202.8"
   r="0.80000001" />
	<circle
   id="leftLowerLipBottom1"
   cx="502.60001"
   cy="209.5"
   r="0.80000001" />
	<circle
   id="leftLowerLipBottom0"
   cx="509.5"
   cy="206.7"
   r="0.80000001" />
	<circle
   id="leftEye4"
   cx="516.70001"
   cy="161.7"
   r="0.80000001" />
	<circle
   id="leftJaw7"
   cx="513.20001"
   cy="233"
   r="0.80000001" />
	<circle
   id="leftJaw6"
   cx="523.20001"
   cy="226.3"
   r="0.80000001" />
	<circle
   id="leftJaw5"
   cx="534.79999"
   cy="213.7"
   r="0.80000001" />
	<circle
   id="leftJaw4"
   cx="541.59998"
   cy="193.7"
   r="0.80000001" />
	<circle
   id="leftJaw3"
   cx="542.40002"
   cy="172.10001"
   r="0.80000001" />
	<circle
   id="leftJaw2"
   cx="542.40002"
   cy="162.5"
   r="0.80000001" />
	<circle
   id="leftJaw1"
   cx="541.59998"
   cy="150.8"
   r="0.80000001" />
	<circle
   id="leftJaw0"
   cx="539.09998"
   cy="141.60001"
   r="0.80000001" />
	<polyline
   style="fill:none;stroke:#000000;stroke-miterlimit:10"
   points="498.4,115.1 478.6,117.6 466.1,127.1 457.5,141.2    455,150.5 454.2,162.2 454.2,171.7 455,193.4 461.8,213.4 473.4,225.9 483.4,232.6 498.4,235.8 513.2,233 523.2,226.3 534.8,213.7    541.6,193.7 542.4,172.1 542.4,162.5 541.6,150.8 539.1,141.6 530.9,127.1 518.3,117.6 498.4,115.1  "
   id="polyline967" />
	<polyline
   style="fill:none;stroke:#000000;stroke-miterlimit:10"
   points="462.4,152 466.4,148.3 472.6,147.3 479.9,147.3    489.7,151.3  "
   id="polyline969" />
	<polygon
   style="fill:none;stroke:#000000;stroke-miterlimit:10"
   points="473.8,162.5 468.6,160.2 473.8,156.5 480.1,156.5 485.3,160.7 480.1,161.7 "
   id="polygon971" />
	<polyline
   style="fill:none;stroke:#000000;stroke-miterlimit:10"
   points="486.9,178.3 492.1,178.3 497.6,179.1 497.6,173.8    497.6,166.7 497.6,161.2 497.6,155.4  "
   id="polyline973" />
	<polyline
   style="fill:none;stroke:#000000;stroke-miterlimit:10"
   points="533.9,151.6 529.9,148.7 523.6,147.2 516.3,147.6    506.3,150.8  "
   id="polyline975" />
	<polygon
   style="fill:none;stroke:#000000;stroke-miterlimit:10"
   points="522.7,162.5 528,160.2 522.7,156.5 516.4,156.5 511.3,160.7 516.4,161.7 "
   id="polygon977" />
	<polyline
   style="fill:none;stroke:#000000;stroke-miterlimit:10"
   points="508,178.3 503,178.3 497.6,179.1  "
   id="polyline979" />
	<polygon
   style="fill:none;stroke:#000000;stroke-miterlimit:10"
   points="509,197 515.9,200.4 509.5,206.7 502.4,209.5 498.4,210 494.3,209.5 487.3,206.7 480.9,200.4 487.8,197 494.3,195.9 498.4,196.8 502.6,195.9 "
   id="polygon981" />
	<polyline
   style="fill:none;stroke:#000000;stroke-miterlimit:10"
   points="480.9,200.4 484.5,200.7 494.5,199.9 498.4,200.4    502.4,199.9 512.3,200.7 515.9,200.4  "
   id="polyline983" />
	<polyline
   style="fill:none;stroke:#000000;stroke-miterlimit:10"
   points="480.9,200.4 484.5,200.7 494.5,202.8 498.4,203.6    502.4,202.8 512.3,200.7 515.9,200.4  "
   id="polyline985" />
	<circle
   id="rightTop0"
   cx="478.70001"
   cy="117.6"
   r="0.80000001" />
	<circle
   id="rightTop1"
   cx="466.10001"
   cy="127.1"
   r="0.80000001" />
</g>

</svg>
